<?xml version="1.0" encoding="utf-8"?>
<!-- Generator: Adobe Illustrator 23.1.0, SVG Export Plug-In . SVG Version: 6.00 Build 0)  -->
<svg version="1.1" id="Layer_1" xmlns="http://www.w3.org/2000/svg" xmlns:xlink="http://www.w3.org/1999/xlink" x="0px" y="0px"
	 viewBox="0 0 397.29 510.63" style="enable-background:new 0 0 397.29 510.63;" xml:space="preserve">
<style type="text/css">
	.st0{fill:none;stroke:#2D2D2D;stroke-miterlimit:10;}
</style>
<path class="st0" d="M373.03,130.97l-2.66-9.85c-8.86-32.85-29.6-58.55-61.66-76.38c-31.12-17.3-66.85-26.07-106.19-26.07
	c-47.68,0-87.53,12.73-118.43,37.84c-31.53,25.62-47.51,60.04-47.51,102.33c0,21.17,4.5,41.37,13.37,60.03
	c8.98,18.91,21.21,33.84,36.35,44.35c14.86,10.33,36.76,19.19,66.98,27.08l84.12,21.92c24.91,6.41,34.6,14.36,38.34,19.9
	c5.79,8.6,8.6,17.68,8.6,27.76c0,13.3-6.1,24.26-18.65,33.52c-13.31,9.82-33.16,14.8-58.99,14.8c-56.77,0-88.35-18.8-96.54-57.48
	l-2.07-9.8l-0.33,0.07H9.96c-1,12,0.94,20.67,0.94,20.67l2.84,10.24c11.43,41.16,34.99,71.92,70.01,91.44
	c34.1,19.01,74.28,28.65,119.41,28.65c53.76,0,98.35-13.21,132.53-39.26c35-26.68,52.75-63.67,52.75-109.93
	c0-28.81-8.41-55.5-24.99-79.33c-17.05-24.5-48.76-42.3-96.96-54.41l-74.78-18.69c-53.62-13.26-53.62-35.74-53.62-43.13
	c0-12.8,5.14-23.09,15.71-31.47c11.12-8.82,28.05-13.3,50.33-13.3c38.15,0,61.62,14.14,71.75,43.23l3,8.61l1.24-0.31h94.85
	c1-12-2-23-2-23"/>
</svg>
